<svg width="25" height="24" viewBox="0 0 25 24" fill="none" xmlns="http://www.w3.org/2000/svg">
<mask id="mask0_623_17295" style="mask-type:luminance" maskUnits="userSpaceOnUse" x="0" y="0" width="25" height="24">
<path d="M0.5 0.515625H24.5V23.9219H0.5V0.515625Z" fill="white"/>
</mask>
<g mask="url(#mask0_623_17295)">
<path d="M1.25 5.63477C1.25 4.82683 1.92157 4.17188 2.75 4.17188H4.25C5.07843 4.17188 5.75 4.82683 5.75 5.63477V20.9951C5.75 21.8031 5.07843 22.458 4.25 22.458H2.75C1.92157 22.458 1.25 21.8031 1.25 20.9951V5.63477ZM2.75 5.63477V20.9951H4.25V5.63477H2.75Z" fill="#999D9B"/>
<path fill-rule="evenodd" clip-rule="evenodd" d="M5 10.7549C5 11.1588 5.33579 11.4863 5.75 11.4863H11.75C12.1642 11.4863 12.5 11.1588 12.5 10.7549C12.5 10.3509 12.1642 10.0234 11.75 10.0234H5.75C5.33579 10.0234 5 10.3509 5 10.7549ZM5 18.8008C5 19.2047 5.33579 19.5322 5.75 19.5322H11.75C12.1642 19.5322 12.5 19.2047 12.5 18.8008C12.5 18.3968 12.1642 18.0693 11.75 18.0693H5.75C5.33579 18.0693 5 18.3968 5 18.8008Z" fill="#999D9B"/>
<path d="M5 8.56055C5 7.75262 5.67157 7.09766 6.5 7.09766H11C11.8284 7.09766 12.5 7.75262 12.5 8.56055V20.9951C12.5 21.8031 11.8284 22.458 11 22.458H6.5C5.67157 22.458 5 21.8031 5 20.9951V8.56055ZM6.5 8.56055V20.9951H11V8.56055H6.5Z" fill="#999D9B"/>
<path d="M11.75 3.43945C11.75 2.63152 12.4216 1.97656 13.25 1.97656H16.25C17.0784 1.97656 17.75 2.63152 17.75 3.43945V20.9942C17.75 21.8021 17.0784 22.4571 16.25 22.4571H13.25C12.4216 22.4571 11.75 21.8021 11.75 20.9942V3.43945ZM13.25 3.43945V20.9942H16.25V3.43945H13.25Z" fill="#999D9B"/>
<path d="M20.3823 5.63677L18.4886 5.83106C18.4401 5.83603 18.3989 5.85981 18.365 5.90239C18.3243 5.95355 18.3078 6.01302 18.3153 6.08081L19.9521 20.7823C19.9598 20.8506 19.9897 20.9061 20.042 20.9487C20.0859 20.9847 20.1329 21.0001 20.1829 20.995L22.076 20.8008C22.1245 20.7959 22.1657 20.7721 22.1996 20.7295C22.2403 20.6783 22.2569 20.6188 22.2493 20.551L20.6148 5.85176C20.6068 5.78294 20.5762 5.72671 20.5228 5.68308C20.4788 5.64711 20.432 5.63168 20.3823 5.63677ZM20.2254 4.1819C20.697 4.13352 21.1173 4.26021 21.4864 4.56199C21.8461 4.85604 22.0526 5.23339 22.1061 5.69404L23.7406 20.3934C23.7917 20.8528 23.6731 21.2638 23.3848 21.6262C23.0895 21.9973 22.7056 22.2072 22.233 22.2557L20.3386 22.45C19.8673 22.498 19.4474 22.3713 19.0787 22.0701C18.7183 21.7756 18.5123 21.399 18.4609 20.9403L16.824 6.23849C16.773 5.77903 16.8916 5.3681 17.1799 5.00567C17.4751 4.63451 17.8591 4.42469 18.3317 4.37619L20.2254 4.1819Z" fill="#999D9B"/>
</g>
</svg>
