<svg width="93" height="97" viewBox="0 0 93 97" fill="none" xmlns="http://www.w3.org/2000/svg">
<g opacity="0.2">
<g filter="url(#filter0_f_623_17080)">
<path d="M46.4511 11.1836C27.6573 11.1836 12.4219 26.419 12.4219 45.2128V45.2639C12.4219 64.0578 27.6062 79.2421 46.4001 79.2421H46.4511C65.245 79.2421 80.4803 64.0578 80.4803 45.2639V45.2128C80.4803 26.419 65.2961 11.1836 46.5022 11.1836H46.4511Z" fill="#DC2626"/>
</g>
</g>
<mask id="mask0_623_17080" style="mask-type:luminance" maskUnits="userSpaceOnUse" x="26" y="24" width="41" height="42">
<path d="M26.0312 24.7969H66.8663V65.632H26.0312V24.7969Z" fill="white"/>
</mask>
<g mask="url(#mask0_623_17080)">
<mask id="mask1_623_17080" style="mask-type:luminance" maskUnits="userSpaceOnUse" x="26" y="24" width="41" height="42">
<path d="M26.0312 24.7969H66.8663V65.632H26.0312V24.7969Z" fill="white"/>
</mask>
<g mask="url(#mask1_623_17080)">
<path d="M56.657 43.514C56.657 41.8823 55.5 40.5178 53.967 40.1894C54.5795 39.1668 54.9555 37.9843 54.9555 36.7082C54.9555 32.9548 51.9031 29.9023 48.1497 29.9023C45.5686 29.9023 43.3498 31.3605 42.1946 33.4822C41.0393 31.3605 38.8206 29.9023 36.2394 29.9023C32.486 29.9023 29.4336 32.9548 29.4336 36.7082C29.4336 38.2429 29.9644 39.6466 30.8237 40.7849C30.3882 41.1033 30.048 41.5029 29.8032 41.9837C29.5583 42.4644 29.4351 42.9745 29.4336 43.514V57.1257C29.4336 59.0024 30.9598 60.5287 32.8365 60.5287H53.2541C55.1308 60.5287 56.657 59.0024 56.657 57.1257V52.6373L63.4628 56.0402V44.13L56.657 47.5329V43.514ZM48.1497 33.3053C50.0264 33.3053 51.5526 34.8315 51.5526 36.7082C51.5526 38.5849 50.0264 40.1111 48.1497 40.1111C46.273 40.1111 44.7467 38.5849 44.7467 36.7082C44.7467 34.8315 46.273 33.3053 48.1497 33.3053ZM36.2394 33.3053C38.1162 33.3053 39.6424 34.8315 39.6424 36.7082C39.6424 38.5849 38.1162 40.1111 36.2394 40.1111C34.3627 40.1111 32.8365 38.5849 32.8365 36.7082C32.8365 34.8315 34.3627 33.3053 36.2394 33.3053ZM32.8365 57.1257V43.514H53.2541L53.2575 57.1257H32.8365Z" fill="#DC2626"/>
</g>
</g>
<path d="M1.44292 95.2266V87.373H4.84237C5.54545 87.373 6.15129 87.489 6.6599 87.7208C7.16851 87.9452 7.56119 88.2706 7.83793 88.6969C8.11467 89.1233 8.25304 89.6319 8.25304 90.2227C8.25304 90.8062 8.11467 91.311 7.83793 91.7374C7.56119 92.1562 7.16851 92.4778 6.6599 92.7022C6.15129 92.9266 5.54545 93.0388 4.84237 93.0388H2.45266L3.26045 92.2422V95.2266H1.44292ZM6.43552 95.2266L4.47214 92.3769H6.41308L8.39889 95.2266H6.43552ZM3.26045 92.4442L2.45266 91.5915H4.7414C5.30237 91.5915 5.72122 91.4718 5.99796 91.2325C6.27471 90.9857 6.41308 90.6491 6.41308 90.2227C6.41308 89.7889 6.27471 89.4524 5.99796 89.213C5.72122 88.9737 5.30237 88.854 4.7414 88.854H2.45266L3.26045 87.9901V92.4442ZM12.3745 90.5369H16.1554V91.9505H12.3745V90.5369ZM12.5091 93.7681H16.7837V95.2266H10.7028V87.373H16.6378V88.8316H12.5091V93.7681ZM20.9112 90.5369H24.6921V91.9505H20.9112V90.5369ZM21.0459 93.7681H25.3204V95.2266H19.2396V87.373H25.1746V88.8316H21.0459V93.7681ZM27.7763 95.2266V87.373H29.5938V93.7456H33.5318V95.2266H27.7763ZM39.1841 95.3612C38.5782 95.3612 38.0135 95.264 37.49 95.0695C36.9739 94.8675 36.5251 94.5833 36.1436 94.2168C35.7622 93.8503 35.463 93.4203 35.2461 92.9266C35.0367 92.433 34.932 91.8907 34.932 91.2998C34.932 90.7089 35.0367 90.1667 35.2461 89.673C35.463 89.1794 35.7622 88.7493 36.1436 88.3828C36.5326 88.0163 36.9851 87.7358 37.5012 87.5413C38.0173 87.3394 38.582 87.2384 39.1953 87.2384C39.8759 87.2384 40.4893 87.3581 41.0353 87.5974C41.5887 87.8293 42.0525 88.1734 42.4265 88.6296L41.2596 89.7067C40.9904 89.4 40.6912 89.1719 40.3621 89.0223C40.033 88.8652 39.674 88.7867 39.285 88.7867C38.9185 88.7867 38.582 88.8465 38.2753 88.9662C37.9686 89.0859 37.7031 89.2579 37.4787 89.4823C37.2544 89.7067 37.0786 89.9722 36.9514 90.2788C36.8318 90.5855 36.7719 90.9258 36.7719 91.2998C36.7719 91.6738 36.8318 92.0141 36.9514 92.3208C37.0786 92.6274 37.2544 92.8929 37.4787 93.1173C37.7031 93.3417 37.9686 93.5137 38.2753 93.6334C38.582 93.7531 38.9185 93.8129 39.285 93.8129C39.674 93.8129 40.033 93.7381 40.3621 93.5885C40.6912 93.4315 40.9904 93.1959 41.2596 92.8817L42.4265 93.9588C42.0525 94.415 41.5887 94.7628 41.0353 95.0022C40.4893 95.2415 39.8722 95.3612 39.1841 95.3612ZM47.2041 95.3163C46.5609 95.3163 45.9887 95.1817 45.4876 94.9124C44.9939 94.6432 44.6012 94.2767 44.3095 93.8129C44.0253 93.3417 43.8832 92.8069 43.8832 92.2086C43.8832 91.6027 44.0253 91.0679 44.3095 90.6042C44.6012 90.133 44.9939 89.7665 45.4876 89.5047C45.9887 89.2354 46.5609 89.1008 47.2041 89.1008C47.8399 89.1008 48.4083 89.2354 48.9095 89.5047C49.4106 89.7665 49.8033 90.1293 50.0875 90.593C50.3717 91.0567 50.5138 91.5952 50.5138 92.2086C50.5138 92.8069 50.3717 93.3417 50.0875 93.8129C49.8033 94.2767 49.4106 94.6432 48.9095 94.9124C48.4083 95.1817 47.8399 95.3163 47.2041 95.3163ZM47.2041 93.8802C47.4958 93.8802 47.7576 93.8129 47.9895 93.6783C48.2213 93.5437 48.4046 93.3529 48.5392 93.1061C48.6739 92.8518 48.7412 92.5526 48.7412 92.2086C48.7412 91.857 48.6739 91.5578 48.5392 91.311C48.4046 91.0642 48.2213 90.8735 47.9895 90.7388C47.7576 90.6042 47.4958 90.5369 47.2041 90.5369C46.9124 90.5369 46.6506 90.6042 46.4188 90.7388C46.1869 90.8735 45.9999 91.0642 45.8578 91.311C45.7232 91.5578 45.6559 91.857 45.6559 92.2086C45.6559 92.5526 45.7232 92.8518 45.8578 93.1061C45.9999 93.3529 46.1869 93.5437 46.4188 93.6783C46.6506 93.8129 46.9124 93.8802 47.2041 93.8802ZM56.3622 89.1008C56.8408 89.1008 57.2672 89.1981 57.6412 89.3925C58.0226 89.5795 58.3218 89.8712 58.5387 90.2676C58.7556 90.6566 58.8641 91.1577 58.8641 91.771V95.2266H57.1138V92.0403C57.1138 91.5541 57.0054 91.1951 56.7885 90.9632C56.5791 90.7314 56.2799 90.6154 55.8909 90.6154C55.6142 90.6154 55.3636 90.6753 55.1392 90.7949C54.9223 90.9071 54.7503 91.0829 54.6232 91.3222C54.5035 91.5616 54.4437 91.8682 54.4437 92.2422V95.2266H52.6934V89.1906H54.3651V90.8622L54.051 90.3574C54.2679 89.9535 54.5783 89.6431 54.9822 89.4262C55.3861 89.2093 55.8461 89.1008 56.3622 89.1008ZM65.129 89.1008C65.6077 89.1008 66.034 89.1981 66.408 89.3925C66.7895 89.5795 67.0886 89.8712 67.3055 90.2676C67.5224 90.6566 67.6309 91.1577 67.6309 91.771V95.2266H65.8807V92.0403C65.8807 91.5541 65.7722 91.1951 65.5553 90.9632C65.3459 90.7314 65.0467 90.6154 64.6578 90.6154C64.381 90.6154 64.1305 90.6753 63.9061 90.7949C63.6892 90.9071 63.5172 91.0829 63.39 91.3222C63.2703 91.5616 63.2105 91.8682 63.2105 92.2422V95.2266H61.4603V89.1906H63.132V90.8622L62.8178 90.3574C63.0347 89.9535 63.3451 89.6431 63.749 89.4262C64.1529 89.2093 64.6129 89.1008 65.129 89.1008ZM73.2665 95.3163C72.5784 95.3163 71.9725 95.1817 71.449 94.9124C70.9329 94.6432 70.5327 94.2767 70.2485 93.8129C69.9643 93.3417 69.8222 92.8069 69.8222 92.2086C69.8222 91.6027 69.9605 91.0679 70.2373 90.6042C70.5215 90.133 70.9067 89.7665 71.3929 89.5047C71.879 89.2354 72.4288 89.1008 73.0421 89.1008C73.633 89.1008 74.164 89.228 74.6353 89.4823C75.1139 89.7291 75.4917 90.0881 75.7684 90.5593C76.0451 91.0231 76.1835 91.5803 76.1835 92.231C76.1835 92.2983 76.1798 92.3769 76.1723 92.4666C76.1648 92.5489 76.1573 92.6274 76.1499 92.7022H71.247V91.6813H75.2299L74.5567 91.9842C74.5567 91.67 74.4931 91.397 74.366 91.1652C74.2388 90.9333 74.0631 90.7538 73.8387 90.6266C73.6143 90.492 73.3525 90.4247 73.0533 90.4247C72.7541 90.4247 72.4886 90.492 72.2568 90.6266C72.0324 90.7538 71.8566 90.937 71.7295 91.1764C71.6023 91.4083 71.5387 91.685 71.5387 92.0066V92.2759C71.5387 92.605 71.6098 92.8967 71.7519 93.151C71.9015 93.3978 72.1072 93.5885 72.369 93.7232C72.6382 93.8503 72.9524 93.9139 73.3114 93.9139C73.633 93.9139 73.9135 93.8653 74.1528 93.7681C74.3996 93.6708 74.624 93.525 74.826 93.3305L75.7572 94.3402C75.4804 94.6544 75.1326 94.8975 74.7138 95.0695C74.2949 95.234 73.8125 95.3163 73.2665 95.3163ZM81.2755 95.3163C80.6248 95.3163 80.0451 95.1854 79.5365 94.9236C79.0279 94.6544 78.6278 94.2841 78.336 93.8129C78.0518 93.3417 77.9097 92.8069 77.9097 92.2086C77.9097 91.6027 78.0518 91.0679 78.336 90.6042C78.6278 90.133 79.0279 89.7665 79.5365 89.5047C80.0451 89.2354 80.6248 89.1008 81.2755 89.1008C81.9113 89.1008 82.4648 89.2354 82.936 89.5047C83.4072 89.7665 83.755 90.1442 83.9794 90.6379L82.6218 91.3671C82.4648 91.0829 82.2665 90.8735 82.0272 90.7388C81.7953 90.6042 81.541 90.5369 81.2643 90.5369C80.9651 90.5369 80.6958 90.6042 80.4565 90.7388C80.2172 90.8735 80.0264 91.0642 79.8843 91.311C79.7497 91.5578 79.6824 91.857 79.6824 92.2086C79.6824 92.5601 79.7497 92.8593 79.8843 93.1061C80.0264 93.3529 80.2172 93.5437 80.4565 93.6783C80.6958 93.8129 80.9651 93.8802 81.2643 93.8802C81.541 93.8802 81.7953 93.8167 82.0272 93.6895C82.2665 93.5549 82.4648 93.3417 82.6218 93.05L83.9794 93.7905C83.755 94.2767 83.4072 94.6544 82.936 94.9236C82.4648 95.1854 81.9113 95.3163 81.2755 95.3163ZM88.5527 95.3163C87.8422 95.3163 87.2887 95.1368 86.8923 94.7778C86.4959 94.4113 86.2976 93.869 86.2976 93.151V87.8555H88.0479V93.1286C88.0479 93.3829 88.1152 93.5811 88.2498 93.7232C88.3844 93.8578 88.5677 93.9251 88.7996 93.9251C89.0763 93.9251 89.3119 93.8503 89.5064 93.7007L89.9776 94.9349C89.7981 95.062 89.5812 95.1592 89.3269 95.2266C89.08 95.2864 88.822 95.3163 88.5527 95.3163ZM85.3664 90.6715V89.3252H89.5512V90.6715H85.3664Z" fill="#1A1A1A"/>
<defs>
<filter id="filter0_f_623_17080" x="2.2131" y="0.974823" width="88.4761" height="88.4761" filterUnits="userSpaceOnUse" color-interpolation-filters="sRGB">
<feFlood flood-opacity="0" result="BackgroundImageFix"/>
<feBlend mode="normal" in="SourceGraphic" in2="BackgroundImageFix" result="shape"/>
<feGaussianBlur stdDeviation="5.10439" result="effect1_foregroundBlur_623_17080"/>
</filter>
</defs>
</svg>
