<svg width="55" height="55" viewBox="0 0 55 55" fill="none" xmlns="http://www.w3.org/2000/svg">
<path d="M54.9185 27.4788C54.9185 42.4046 42.8187 54.5044 27.8928 54.5044C12.967 54.5044 0.867188 42.4046 0.867188 27.4788C0.867188 12.5529 12.967 0.453125 27.8928 0.453125C42.8187 0.453125 54.9185 12.5529 54.9185 27.4788Z" fill="#DC2626"/>
<path d="M36.8997 24.7913H30.5779V18.4695C30.5779 17.6312 30.2449 16.8272 29.6521 16.2344C29.0593 15.6416 28.2553 15.3086 27.417 15.3086C26.5787 15.3086 25.7747 15.6416 25.1819 16.2344C24.5891 16.8272 24.2561 17.6312 24.2561 18.4695L24.3683 24.7913H17.9343C17.096 24.7913 16.292 25.1243 15.6992 25.7171C15.1065 26.3099 14.7734 27.1138 14.7734 27.9522C14.7734 28.7905 15.1065 29.5945 15.6992 30.1873C16.292 30.78 17.096 31.1131 17.9343 31.1131L24.3683 31.0008L24.2561 37.4348C24.2561 38.2732 24.5891 39.0771 25.1819 39.6699C25.7747 40.2627 26.5787 40.5957 27.417 40.5957C28.2553 40.5957 29.0593 40.2627 29.6521 39.6699C30.2449 39.0771 30.5779 38.2732 30.5779 37.4348V31.0008L36.8997 31.1131C37.738 31.1131 38.542 30.78 39.1348 30.1873C39.7276 29.5945 40.0606 28.7905 40.0606 27.9522C40.0606 27.1138 39.7276 26.3099 39.1348 25.7171C38.542 25.1243 37.738 24.7913 36.8997 24.7913Z" fill="white"/>
</svg>
