<svg width="23" height="21" viewBox="0 0 23 21" fill="none" xmlns="http://www.w3.org/2000/svg">
<path fill-rule="evenodd" clip-rule="evenodd" d="M11.5904 4.24769C11.0201 3.35875 10.1905 2.65417 9.10165 2.13397C8.89456 2.03503 8.67619 1.94216 8.44652 1.85537C6.839 1.24786 4.67854 0.938002 1.96513 0.925796C1.55467 0.924247 1.20378 1.06859 0.913534 1.35884C0.623288 1.64909 0.478936 1.99851 0.480481 2.40712V15.6497C0.480481 16.0668 0.605662 16.4223 0.856023 16.7164C1.1421 17.0524 1.5107 17.2204 1.96181 17.2204C4.6494 17.2204 6.73768 17.4805 8.22666 18.0007C8.8684 18.2249 9.42498 18.5049 9.8964 18.8406C10.3065 19.1328 10.6784 19.4875 11.0119 19.9048C11.0462 19.9478 11.0848 19.9865 11.1278 20.0208C11.2045 20.0821 11.29 20.1265 11.3843 20.1538C11.4787 20.1811 11.5747 20.1894 11.6723 20.1786C11.7699 20.1677 11.8617 20.1385 11.9477 20.0912C12.0338 20.0438 12.1075 19.9818 12.1688 19.9051C12.5045 19.4855 12.8776 19.1294 13.2882 18.8368C13.7595 18.5009 14.3158 18.2211 14.9571 17.9975C16.4421 17.4794 18.5294 17.2204 21.2191 17.2204C21.6282 17.2204 21.9773 17.0758 22.2666 16.7866C22.5558 16.4973 22.7004 16.1482 22.7004 15.7391V2.40991C22.702 1.99945 22.5577 1.64909 22.2674 1.35884C21.9771 1.0686 21.6266 0.924247 21.2158 0.925796C18.1148 0.939701 15.7359 1.34243 14.0792 2.13397C12.9904 2.65417 12.1609 3.35875 11.5904 4.24769ZM10.8498 6.20607V17.7023C10.8187 17.6793 10.7874 17.6566 10.7558 17.6341C10.1699 17.2167 9.48968 16.8728 8.71519 16.6022C7.0704 16.0276 4.82333 15.7399 1.97398 15.7391C1.96587 15.7193 1.96181 15.6895 1.96181 15.6497V2.40713C4.3833 2.41821 6.30156 2.67094 7.71662 3.16532C7.9833 3.25849 8.23212 3.36024 8.46305 3.47058C9.04821 3.75016 9.52942 4.08911 9.90669 4.48744C9.96057 4.54435 10.0123 4.60247 10.062 4.66179C10.4019 5.06798 10.654 5.54579 10.8181 6.09523C10.8291 6.13187 10.8396 6.16881 10.8498 6.20607ZM20.6908 2.41353C20.8642 2.41008 21.0403 2.40794 21.2191 2.40713V15.7391C18.3621 15.7391 16.1121 16.0257 14.4692 16.5988C13.6949 16.869 13.0146 17.2128 12.4285 17.6304C12.3958 17.6537 12.3634 17.6773 12.3311 17.7012V6.20607C12.4937 5.60981 12.7563 5.09505 13.1189 4.66179C13.5161 4.18716 14.0491 3.79009 14.7178 3.47058C16.0837 2.81802 18.0746 2.46567 20.6908 2.41353Z" fill="#999D9B"/>
</svg>
