<svg width="18" height="21" viewBox="0 0 18 21" fill="none" xmlns="http://www.w3.org/2000/svg">
<path d="M9 21V19H16V18H12V10H16V9C16 7.06667 15.3167 5.41667 13.95 4.05C12.5833 2.68333 10.9333 2 9 2C7.06667 2 5.41667 2.68333 4.05 4.05C2.68333 5.41667 2 7.06667 2 9V10H6V18H2C1.45 18 0.979333 17.8043 0.588 17.413C0.196667 17.0217 0.000666667 16.5507 0 16V9C0 7.76667 0.237667 6.604 0.713 5.512C1.18833 4.42 1.834 3.466 2.65 2.65C3.466 1.834 4.42033 1.18833 5.513 0.713C6.60567 0.237667 7.768 0 9 0C10.232 0 11.3947 0.237667 12.488 0.713C13.5813 1.18833 14.5353 1.834 15.35 2.65C16.1647 3.466 16.8107 4.42033 17.288 5.513C17.7653 6.60567 18.0027 7.768 18 9V19C18 19.55 17.8043 20.021 17.413 20.413C17.0217 20.805 16.5507 21.0007 16 21H9ZM2 16H4V12H2V16ZM14 16H16V12H14V16Z" fill="#999D9B"/>
</svg>
