<svg width="24" height="25" viewBox="0 0 24 25" fill="none" xmlns="http://www.w3.org/2000/svg">
<path d="M19.4298 22.5615H4.58189C3.0976 22.5615 1.95203 21.4416 2.14658 19.9702L2.25916 19.112C2.46359 17.9269 3.54792 17.1813 4.72508 16.9255L11.9293 15.6585H12.0715L19.2757 16.9255C20.4726 17.2021 21.5372 17.9062 21.7416 19.112L21.8542 19.981C22.0487 21.4525 20.9032 22.5714 19.4189 22.5714L19.4298 22.5615ZM16.9382 7.75808C16.9382 9.06766 16.4179 10.3236 15.4919 11.2496C14.5659 12.1756 13.31 12.6958 12.0004 12.6958C10.6908 12.6958 9.43487 12.1756 8.50886 11.2496C7.58285 10.3236 7.06262 9.06766 7.06262 7.75808C7.06262 6.4485 7.58285 5.19256 8.50886 4.26655C9.43487 3.34054 10.6908 2.82031 12.0004 2.82031C13.31 2.82031 14.5659 3.34054 15.4919 4.26655C16.4179 5.19256 16.9382 6.4485 16.9382 7.75808Z" stroke="#999D9B" stroke-width="1.5" stroke-linecap="round" stroke-linejoin="round"/>
</svg>
